# xmcd
#
# Track frame offsets:
#	150
#	12637
#	22374
#	34434
#	45000
#	57618
#	72974
#	93576
#	113019
#	125789
#	144740
#	173769
#	193992
#	212618
#	223270
#	234909
#	248939
#	260710
#	276083
#	302980
#	315998
#	335706
#	355020
#	372843
#
# Disc length: 5161 seconds
#
# Revision: 0
# Processed by: cddbd v1.5.2PL0 Copyright (c) Steve Scherf et al.
# Submitted via: audiograbber 1.83.01
#
DISCID=86142718
DTITLE=Chuck Berry - Rock And Roll Music - Any Old Way You Choose It [CD 08) - 
DTITLE=Studio 1969-1972
DYEAR=2014
DGENRE=Rock and Roll
TTITLE0=Gun [instrumental] [1970]
TTITLE1=Gun [fast] [instrumental] [2010]
TTITLE2=Gun [slow] [instrumental] [2010]
TTITLE3=That's None Of Your Business [2010]
TTITLE4=Instrumental [1970]
TTITLE5=Christmas [1970]
TTITLE6=I'm A Rocker [1970]
TTITLE7=Flyin' Home [instrumental] [1970]
TTITLE8=Fish and Chips [1970]
TTITLE9=Some People [1970]
TTITLE10=My Pad [poem] [mono 2010]
TTITLE11=Oh Louisiana [1971]
TTITLE12=Festival [1971]
TTITLE13=Let's Do Our Thing Together [1971]
TTITLE14=Your Lick [1971]
TTITLE15=Bound To Lose [1971]
TTITLE16=Bordeaux In My Pirough [1971]
TTITLE17=San Francisco Dues [1971]
TTITLE18=My Dream [poem] [1971]
TTITLE19=Roll 'Em Pete [live 1973]
TTITLE20=Reelin' And Rockin' [live 1972]
TTITLE21=My Ding-A-Ling [live 1972]
TTITLE22=Johnny B. Goode [live 1972]
TTITLE23=Let's Boogie [1972]
EXTD=
EXTT0=
EXTT1=
EXTT2=
EXTT3=
EXTT4=
EXTT5=
EXTT6=
EXTT7=
EXTT8=
EXTT9=
EXTT10=
EXTT11=
EXTT12=
EXTT13=
EXTT14=
EXTT15=
EXTT16=
EXTT17=
EXTT18=
EXTT19=
EXTT20=
EXTT21=
EXTT22=
EXTT23=
PLAYORDER=
